# xmcd
#
# Track frame offsets:
#	150
#	12185
#	29630
#	43734
#	58234
#	71848
#	90664
#	103231
#	116688
#	131664
#	143960
#	160707
#
# Disc length: 2334 seconds
#
# Revision: 1
# Processed by: cddbd v1.5.1PL0 Copyright (c) Steve Scherf et al.
# Submitted via: audiograbber 1.83.01
#
DISCID=b0091c0c
DTITLE=Trevor Day - Songs For Old Friends
DYEAR=1900
DGENRE=Country
TTITLE0=The Cabin Is My Home
TTITLE1=A Mug Of Billy Tea
TTITLE2=Little Cowboy
TTITLE3=Fire Of Gidgee Cool
TTITLE4=Old Time Country Halls
TTITLE5=Read Headed Kid
TTITLE6=Just Passing Through
TTITLE7=Milk Bottle
TTITLE8=The Tramps' Mother
TTITLE9=Santa Claus Is Coming
TTITLE10=The Old Balladear
TTITLE11=The Bride's Warning
EXTD=
EXTT0=
EXTT1=
EXTT2=
EXTT3=
EXTT4=
EXTT5=
EXTT6=
EXTT7=
EXTT8=
EXTT9=
EXTT10=
EXTT11=
PLAYORDER=
